<svg width="237" height="95" viewBox="0 0 237 95" fill="none" xmlns="http://www.w3.org/2000/svg">
<path d="M24.1818 93.0909H0L31.4091 3.05176e-05H61.3636L92.7727 93.0909H68.5909L46.7273 23.4546H46L24.1818 93.0909ZM20.9545 56.4546H71.5V73.5455H20.9545V56.4546ZM157.785 44.5909L137.376 45.1364C137.164 43.6819 136.588 42.394 135.649 41.2728C134.709 40.1212 133.482 39.2273 131.967 38.5909C130.482 37.9243 128.755 37.5909 126.785 37.5909C124.209 37.5909 122.012 38.1061 120.194 39.1364C118.406 40.1667 117.527 41.5606 117.558 43.3182C117.527 44.6818 118.073 45.8637 119.194 46.8637C120.346 47.8637 122.391 48.6667 125.33 49.2728L138.785 51.8182C145.755 53.1515 150.937 55.3637 154.33 58.4546C157.755 61.5455 159.482 65.6364 159.512 70.7273C159.482 75.5152 158.058 79.6819 155.24 83.2273C152.452 86.7728 148.633 89.5303 143.785 91.5C138.937 93.4394 133.391 94.4091 127.149 94.4091C117.179 94.4091 109.315 92.3637 103.558 88.2728C97.8305 84.1515 94.5577 78.6364 93.7395 71.7273L115.694 71.1819C116.179 73.7273 117.437 75.6667 119.467 77C121.497 78.3334 124.088 79 127.24 79C130.088 79 132.406 78.4697 134.194 77.4091C135.982 76.3485 136.891 74.9394 136.921 73.1819C136.891 71.6061 136.194 70.3485 134.83 69.4091C133.467 68.4394 131.33 67.6819 128.421 67.1364L116.24 64.8182C109.24 63.5455 104.027 61.197 100.603 57.7728C97.1789 54.3182 95.482 49.9243 95.5123 44.5909C95.482 39.9243 96.7244 35.9394 99.2395 32.6364C101.755 29.3031 105.33 26.7576 109.967 25C114.603 23.2425 120.073 22.3637 126.376 22.3637C135.83 22.3637 143.285 24.3485 148.74 28.3182C154.194 32.2576 157.209 37.6818 157.785 44.5909ZM194.343 88.4546V22.6364H212.661V88.4546H194.343ZM170.57 64.7273V46.4091H236.388V64.7273H170.57Z" fill="#3E8EF5"/>
</svg>
